# xmcd CD database file
#
# Track frame offsets:
#	150
#	13075
#	28333
#	42765
#	56896
#	72241
#	85087
#	98211
#	109266
#	121655
#
# Disc length: 1819 seconds
#
# Revision: 0
# Processed by: cddbd v1.5.2PL0 Copyright (c) Steve Scherf et al.
# Submitted via: CDex 1.51
#
DISCID=8207190a
DTITLE=DANDY BELTRAN - SABOR TROPICAL
DYEAR=2007
DGENRE=Salsa
TTITLE0=Cumbia Del Ecuador
TTITLE1=La Historia De Mi vVda
TTITLE2=Saludo A Mexico
TTITLE3=Como Pienso En Ti
TTITLE4=Me Gusta California
TTITLE5=Las Colombianas
TTITLE6=Carta A Linda
TTITLE7=Limon Limonero
TTITLE8=Cielo Argentino
TTITLE9=Quiero A Cuba
EXTD=YEAR: 2007
EXTT0=
EXTT1=
EXTT2=
EXTT3=
EXTT4=
EXTT5=
EXTT6=
EXTT7=
EXTT8=
EXTT9=
PLAYORDER=
